<svg xmlns="http://www.w3.org/2000/svg" viewBox="0 0 130 78"><defs><filter id="c-paper-0" x="-15%" y="-15%" width="130%" height="130%" color-interpolation-filters="sRGB">
    <feTurbulence type="fractalNoise" baseFrequency="0.04" numOctaves="2" seed="4" result="warp"/>
    <feDisplacementMap in="SourceGraphic" in2="warp" scale="5" xChannelSelector="R" yChannelSelector="G" result="torn"/>
    <feTurbulence type="fractalNoise" baseFrequency="0.014 0.085" numOctaves="4" seed="9" result="paint"/>
    <feColorMatrix in="paint" type="matrix" values="0 0 0 0 1  0 0 0 0 0.97  0 0 0 0 0.93  1.3 0 0 0 -0.6" result="light"/>
    <feComposite in="light" in2="torn" operator="in" result="lightIn"/>
    <feColorMatrix in="paint" type="matrix" values="0 0 0 0 0.16  0 0 0 0 0.06  0 0 0 0 0.1  0 -1.3 0 0 0.5" result="dark"/>
    <feComposite in="dark" in2="torn" operator="in" result="darkIn"/>
    <feTurbulence type="fractalNoise" baseFrequency="0.7" numOctaves="1" seed="3" result="fiber"/>
    <feColorMatrix in="fiber" type="matrix" values="0 0 0 0 1  0 0 0 0 1  0 0 0 0 1  0 0 1.2 0 -0.62" result="flecks"/>
    <feComposite in="flecks" in2="torn" operator="in" result="flecksIn"/>
    <feMerge result="painted"><feMergeNode in="torn"/><feMergeNode in="lightIn"/><feMergeNode in="darkIn"/><feMergeNode in="flecksIn"/></feMerge>
    <feDropShadow in="painted" dx="1.20" dy="2.40" stdDeviation="1.6" flood-color="#1c0d09" flood-opacity=".42"/>
  </filter>
  <filter id="c-paper-30" x="-15%" y="-15%" width="130%" height="130%" color-interpolation-filters="sRGB">
    <feTurbulence type="fractalNoise" baseFrequency="0.04" numOctaves="2" seed="5" result="warp"/>
    <feDisplacementMap in="SourceGraphic" in2="warp" scale="5" xChannelSelector="R" yChannelSelector="G" result="torn"/>
    <feTurbulence type="fractalNoise" baseFrequency="0.014 0.085" numOctaves="4" seed="10" result="paint"/>
    <feColorMatrix in="paint" type="matrix" values="0 0 0 0 1  0 0 0 0 0.97  0 0 0 0 0.93  1.3 0 0 0 -0.6" result="light"/>
    <feComposite in="light" in2="torn" operator="in" result="lightIn"/>
    <feColorMatrix in="paint" type="matrix" values="0 0 0 0 0.16  0 0 0 0 0.06  0 0 0 0 0.1  0 -1.3 0 0 0.5" result="dark"/>
    <feComposite in="dark" in2="torn" operator="in" result="darkIn"/>
    <feTurbulence type="fractalNoise" baseFrequency="0.7" numOctaves="1" seed="3" result="fiber"/>
    <feColorMatrix in="fiber" type="matrix" values="0 0 0 0 1  0 0 0 0 1  0 0 0 0 1  0 0 1.2 0 -0.62" result="flecks"/>
    <feComposite in="flecks" in2="torn" operator="in" result="flecksIn"/>
    <feMerge result="painted"><feMergeNode in="torn"/><feMergeNode in="lightIn"/><feMergeNode in="darkIn"/><feMergeNode in="flecksIn"/></feMerge>
    <feDropShadow in="painted" dx="2.24" dy="1.48" stdDeviation="1.6" flood-color="#1c0d09" flood-opacity=".42"/>
  </filter>
  <filter id="c-paper-60" x="-15%" y="-15%" width="130%" height="130%" color-interpolation-filters="sRGB">
    <feTurbulence type="fractalNoise" baseFrequency="0.04" numOctaves="2" seed="6" result="warp"/>
    <feDisplacementMap in="SourceGraphic" in2="warp" scale="5" xChannelSelector="R" yChannelSelector="G" result="torn"/>
    <feTurbulence type="fractalNoise" baseFrequency="0.014 0.085" numOctaves="4" seed="11" result="paint"/>
    <feColorMatrix in="paint" type="matrix" values="0 0 0 0 1  0 0 0 0 0.97  0 0 0 0 0.93  1.3 0 0 0 -0.6" result="light"/>
    <feComposite in="light" in2="torn" operator="in" result="lightIn"/>
    <feColorMatrix in="paint" type="matrix" values="0 0 0 0 0.16  0 0 0 0 0.06  0 0 0 0 0.1  0 -1.3 0 0 0.5" result="dark"/>
    <feComposite in="dark" in2="torn" operator="in" result="darkIn"/>
    <feTurbulence type="fractalNoise" baseFrequency="0.7" numOctaves="1" seed="3" result="fiber"/>
    <feColorMatrix in="fiber" type="matrix" values="0 0 0 0 1  0 0 0 0 1  0 0 0 0 1  0 0 1.2 0 -0.62" result="flecks"/>
    <feComposite in="flecks" in2="torn" operator="in" result="flecksIn"/>
    <feMerge result="painted"><feMergeNode in="torn"/><feMergeNode in="lightIn"/><feMergeNode in="darkIn"/><feMergeNode in="flecksIn"/></feMerge>
    <feDropShadow in="painted" dx="2.68" dy="0.16" stdDeviation="1.6" flood-color="#1c0d09" flood-opacity=".42"/>
  </filter>
  <filter id="c-paper-90" x="-15%" y="-15%" width="130%" height="130%" color-interpolation-filters="sRGB">
    <feTurbulence type="fractalNoise" baseFrequency="0.04" numOctaves="2" seed="7" result="warp"/>
    <feDisplacementMap in="SourceGraphic" in2="warp" scale="5" xChannelSelector="R" yChannelSelector="G" result="torn"/>
    <feTurbulence type="fractalNoise" baseFrequency="0.014 0.085" numOctaves="4" seed="12" result="paint"/>
    <feColorMatrix in="paint" type="matrix" values="0 0 0 0 1  0 0 0 0 0.97  0 0 0 0 0.93  1.3 0 0 0 -0.6" result="light"/>
    <feComposite in="light" in2="torn" operator="in" result="lightIn"/>
    <feColorMatrix in="paint" type="matrix" values="0 0 0 0 0.16  0 0 0 0 0.06  0 0 0 0 0.1  0 -1.3 0 0 0.5" result="dark"/>
    <feComposite in="dark" in2="torn" operator="in" result="darkIn"/>
    <feTurbulence type="fractalNoise" baseFrequency="0.7" numOctaves="1" seed="3" result="fiber"/>
    <feColorMatrix in="fiber" type="matrix" values="0 0 0 0 1  0 0 0 0 1  0 0 0 0 1  0 0 1.2 0 -0.62" result="flecks"/>
    <feComposite in="flecks" in2="torn" operator="in" result="flecksIn"/>
    <feMerge result="painted"><feMergeNode in="torn"/><feMergeNode in="lightIn"/><feMergeNode in="darkIn"/><feMergeNode in="flecksIn"/></feMerge>
    <feDropShadow in="painted" dx="2.40" dy="-1.20" stdDeviation="1.6" flood-color="#1c0d09" flood-opacity=".42"/>
  </filter>
  <filter id="c-paper-120" x="-15%" y="-15%" width="130%" height="130%" color-interpolation-filters="sRGB">
    <feTurbulence type="fractalNoise" baseFrequency="0.04" numOctaves="2" seed="8" result="warp"/>
    <feDisplacementMap in="SourceGraphic" in2="warp" scale="5" xChannelSelector="R" yChannelSelector="G" result="torn"/>
    <feTurbulence type="fractalNoise" baseFrequency="0.014 0.085" numOctaves="4" seed="13" result="paint"/>
    <feColorMatrix in="paint" type="matrix" values="0 0 0 0 1  0 0 0 0 0.97  0 0 0 0 0.93  1.3 0 0 0 -0.6" result="light"/>
    <feComposite in="light" in2="torn" operator="in" result="lightIn"/>
    <feColorMatrix in="paint" type="matrix" values="0 0 0 0 0.16  0 0 0 0 0.06  0 0 0 0 0.1  0 -1.3 0 0 0.5" result="dark"/>
    <feComposite in="dark" in2="torn" operator="in" result="darkIn"/>
    <feTurbulence type="fractalNoise" baseFrequency="0.7" numOctaves="1" seed="3" result="fiber"/>
    <feColorMatrix in="fiber" type="matrix" values="0 0 0 0 1  0 0 0 0 1  0 0 0 0 1  0 0 1.2 0 -0.62" result="flecks"/>
    <feComposite in="flecks" in2="torn" operator="in" result="flecksIn"/>
    <feMerge result="painted"><feMergeNode in="torn"/><feMergeNode in="lightIn"/><feMergeNode in="darkIn"/><feMergeNode in="flecksIn"/></feMerge>
    <feDropShadow in="painted" dx="1.48" dy="-2.24" stdDeviation="1.6" flood-color="#1c0d09" flood-opacity=".42"/>
  </filter>
  <filter id="c-paper-150" x="-15%" y="-15%" width="130%" height="130%" color-interpolation-filters="sRGB">
    <feTurbulence type="fractalNoise" baseFrequency="0.04" numOctaves="2" seed="9" result="warp"/>
    <feDisplacementMap in="SourceGraphic" in2="warp" scale="5" xChannelSelector="R" yChannelSelector="G" result="torn"/>
    <feTurbulence type="fractalNoise" baseFrequency="0.014 0.085" numOctaves="4" seed="14" result="paint"/>
    <feColorMatrix in="paint" type="matrix" values="0 0 0 0 1  0 0 0 0 0.97  0 0 0 0 0.93  1.3 0 0 0 -0.6" result="light"/>
    <feComposite in="light" in2="torn" operator="in" result="lightIn"/>
    <feColorMatrix in="paint" type="matrix" values="0 0 0 0 0.16  0 0 0 0 0.06  0 0 0 0 0.1  0 -1.3 0 0 0.5" result="dark"/>
    <feComposite in="dark" in2="torn" operator="in" result="darkIn"/>
    <feTurbulence type="fractalNoise" baseFrequency="0.7" numOctaves="1" seed="3" result="fiber"/>
    <feColorMatrix in="fiber" type="matrix" values="0 0 0 0 1  0 0 0 0 1  0 0 0 0 1  0 0 1.2 0 -0.62" result="flecks"/>
    <feComposite in="flecks" in2="torn" operator="in" result="flecksIn"/>
    <feMerge result="painted"><feMergeNode in="torn"/><feMergeNode in="lightIn"/><feMergeNode in="darkIn"/><feMergeNode in="flecksIn"/></feMerge>
    <feDropShadow in="painted" dx="0.16" dy="-2.68" stdDeviation="1.6" flood-color="#1c0d09" flood-opacity=".42"/>
  </filter>
  <filter id="c-soil" x="-5%" y="-5%" width="110%" height="110%" color-interpolation-filters="sRGB">
    <feTurbulence type="fractalNoise" baseFrequency="0.03" numOctaves="2" seed="12" result="warp"/>
    <feDisplacementMap in="SourceGraphic" in2="warp" scale="9" xChannelSelector="R" yChannelSelector="G" result="torn"/>
    <feTurbulence type="fractalNoise" baseFrequency="0.02 0.12" numOctaves="4" seed="5" result="paint"/>
    <feColorMatrix in="paint" type="matrix" values="0 0 0 0 0.55  0 0 0 0 0.38  0 0 0 0 0.3  1.3 0 0 0 -0.55" result="light"/>
    <feComposite in="light" in2="torn" operator="in" result="lightIn"/>
    <feMerge><feMergeNode in="torn"/><feMergeNode in="lightIn"/></feMerge>
  </filter>
  <filter id="c-small" x="-15%" y="-15%" width="130%" height="130%" color-interpolation-filters="sRGB">
    <feTurbulence type="fractalNoise" baseFrequency="0.09" numOctaves="2" seed="4" result="warp"/>
    <feDisplacementMap in="SourceGraphic" in2="warp" scale="2" xChannelSelector="R" yChannelSelector="G" result="torn"/>
    <feTurbulence type="fractalNoise" baseFrequency="0.12 0.9" numOctaves="2" seed="9" result="paint"/>
    <feColorMatrix in="paint" type="matrix" values="0 0 0 0 1  0 0 0 0 0.97  0 0 0 0 0.93  1.4 0 0 0 -0.6" result="light"/>
    <feComposite in="light" in2="torn" operator="in" result="lightIn"/>
    <feMerge result="painted"><feMergeNode in="torn"/><feMergeNode in="lightIn"/></feMerge>
    <feDropShadow in="painted" dx="0.5" dy="1" stdDeviation="0.6" flood-color="#1c0d09" flood-opacity=".35"/>
  </filter></defs><g filter="url(#c-small)"><path d="M122 43C122 48 118 55 113 59C107 64 98 67 91 69C84 72 81 72 71 72C61 71 41 69 32 66C22 64 19 58 15 54C12 50 10 47 10 42C10 38 13 31 17 27C20 23 25 21 32 18C40 16 51 11 62 11C73 11 87 15 95 18C104 21 110 25 114 29C119 33 122 38 122 43Z" fill="#f4ebdc"/><path d="M107 40C108 43 110 45 107 48C104 50 97 54 89 56C81 58 67 60 60 61C52 61 50 60 44 59C38 57 30 53 26 50C22 47 19 44 19 41C19 37 22 31 26 27C31 24 41 22 47 20C53 19 58 19 64 19C70 19 76 19 83 21C89 22 98 24 102 28C106 31 107 36 107 40Z" fill="#e3c992"/></g><g filter="url(#c-small)"><path d="M93 35C93 37 92 39 91 40C89 42 85 43 83 44C81 44 79 44 77 44C74 43 71 42 70 40C68 39 68 37 68 35C68 34 68 32 69 31C71 30 72 29 74 28C77 28 81 28 84 28C86 29 87 30 89 31C91 32 93 33 93 35Z" fill="#fbf6f0"/></g><g filter="url(#c-small)"><path d="M53 34C53 35 52 36 51 37C50 38 48 38 47 38C45 38 45 37 44 36C44 35 44 33 44 32C44 31 45 30 47 30C48 30 50 30 51 31C52 31 53 33 53 34Z" fill="#4d3b7a"/></g><g filter="url(#c-small)"><path d="M61 42C61 43 60 44 59 45C58 46 56 46 55 46C54 46 52 45 52 44C52 43 52 41 52 40C53 39 54 39 55 38C56 38 57 38 58 39C59 39 60 41 61 42Z" fill="#4d3b7a"/></g><g filter="url(#c-small)"><path d="M49 44C49 45 48 46 47 47C46 47 44 48 43 48C42 48 41 47 40 46C40 45 40 43 40 42C40 41 42 40 43 40C44 40 46 40 46 40C47 41 49 43 49 44Z" fill="#4d3b7a"/></g><g filter="url(#c-small)"><path d="M66 30C66 31 65 32 64 33C63 34 62 34 61 34C60 34 58 33 58 32C58 31 58 30 58 29C59 28 60 26 61 26C62 26 64 26 64 27C65 27 66 29 66 30Z" fill="#4d3b7a"/></g><g filter="url(#c-small)"><path d="M76 47C76 48 75 49 74 49C73 50 72 50 71 50C70 50 69 49 68 48C68 47 68 45 68 44C69 43 70 42 71 42C72 42 74 42 75 43C76 44 77 45 76 47Z" fill="#4d3b7a"/></g><g filter="url(#c-small)"><path d="M56 50C56 51 56 52 55 53C54 53 52 54 51 54C50 54 48 53 48 52C48 51 48 49 48 48C49 47 50 46 51 46C52 46 54 46 55 47C55 47 56 49 56 50Z" fill="#4d3b7a"/></g><g filter="url(#c-small)"><path d="M93 47C92 47 91 48 91 48C90 48 88 48 87 47C86 47 85 46 84 45C83 45 83 44 83 44C83 43 84 42 85 42C86 42 88 42 89 43C90 43 91 44 92 45C93 45 93 46 93 47Z" fill="#d9b98a"/></g><g filter="url(#c-small)"><path d="M88 25C89 26 88 27 88 28C87 29 86 29 85 30C84 31 82 31 81 31C80 31 80 31 79 30C79 30 80 29 80 28C81 28 81 27 82 26C83 25 86 25 87 25C88 25 88 25 88 25Z" fill="#d9b98a"/></g><g filter="url(#c-small)"><path d="M75 27C75 28 74 28 73 28C72 28 70 29 69 28C68 28 67 28 66 27C65 26 65 26 65 25C65 24 66 24 67 24C68 23 69 23 70 24C71 24 73 24 74 25C75 25 75 26 75 27Z" fill="#d9b98a"/></g><g filter="url(#c-small)"><path d="M96 22C97 23 98 23 100 23C101 23 101 22 102 22C103 22 104 21 104 21C105 21 106 20 106 19C107 19 107 18 108 17C108 17 109 16 109 15C110 14 110 13 110 12C110 11 108 12 107 12C106 12 105 12 104 12C103 13 103 13 102 13C101 14 100 14 100 14C99 15 98 15 98 16C97 17 97 17 96 18C96 19 95 21 96 22Z" fill="#93b372"/></g></svg>
